<?xml version="1.0"?><svg version="1.2" baseProfile="tiny-ps" viewBox="0 0 300 300" xmlns="http://www.w3.org/2000/svg" xmlns:xlink="http://www.w3.org/1999/xlink"><title>lisek-bimi</title><g><g fill="#f5801e" transform="matrix(.1 0 0 -.1 0 300)"><path d="M862 2617c-39-48-82-185-82-259v-38l-66-71c-164-180-249-367-276-611l-12-108 12-107c26-236 121-445 274-603 92-95 262-242 325-280l61-37 80-26c44-15 113-32 153-38l74-12 110 6 110 6 80 20 80 21 92 45c103 51 155 89 296 219l99 90 49 66 50 65 54 110 54 110 23 90 23 90v340l-24 85-23 85-49 104-49 104-49 66c-51 68-166 184-213 215l-26 17-16 72-17 72-27 50-27 50-25-4c-30-4-90-34-145-71l-40-27-24 8c-43 17-205 39-279 39-98 0-199-16-304-47l-87-26-38 30c-54 42-104 71-151 87l-41 15-9-12zm775-168c35-6 63-13 63-15 0-3-17-27-37-54-21-27-45-58-53-69l-15-21-70 11-70 10-60-6c-33-3-74-8-90-11l-30-5-43 62c-24 34-41 64-38 66 2 2 44 13 92 23l89 19h99l99 1 64-11zm555-293c77-91 140-198 178-304l30-83 15-86c32-183 5-381-74-553l-21-45 5 71 6 71-11 86c-6 48-13 94-16 102l-6 16-59-56-58-55-53-25c-29-14-85-32-124-40l-71-16-41 3-42 3 51 67 50 67 117 97c64 54 138 117 163 141l46 44-61 62-61 63-49 88-49 89 16 87c9 48 17 103 17 123 0 19 3 42 6 51l6 15 14-6c9-3 42-38 76-77zM806 1999l15-66-41-88-41-89-54-73c-30-40-55-74-55-77s35-24 78-47c42-23 100-55 129-71l51-28-40-61-40-60-24-68c-13-38-29-104-35-147l-11-78 7-60 7-61-37 50c-53 72-111 191-142 292l-27 88v350l27 89c36 115 85 214 149 301l52 70 8-50c5-27 15-80 24-116zm381-326 67-16 153-78 154-78 50-7 50-7 15-29 15-29 30-18 31-19-39-13-38-13h-140l-52 17-52 18-51 46-50 45-15-6-15-5v-39l41-37 42-37 56-27 56-26h220l54 30 53 29 25 33c13 17 28 44 32 60l8 28-9 26-9 26-45 33-44 34 28 18c15 9 55 24 89 33l61 16 67-11c37-6 80-16 97-23l31-12-112-89-112-89-48-56c-26-31-65-81-85-113l-38-56-83-12-84-12-79-27c-44-15-109-44-145-64l-66-37-57-53-58-52-37-58-38-58-24 43c-14 24-32 67-41 97l-16 55v187l25 75c14 41 25 79 25 84s-30 35-67 65l-68 56-92 46-92 46 5 9c10 17 88 50 148 64l61 14 72-5c40-3 103-12 140-22zm1070-475c-7-96-28-179-63-259l-26-57-41-30c-64-45-203-110-213-99-2 2 12 39 30 83 19 43 37 90 41 103l7 23-71-7-71-7-61 7-60 7 74 77c40 42 81 88 90 102l17 25 75 12c90 14 177 43 224 76 20 14 40 25 45 25l9 1-6-82z"/></g><g fill="#b86c1f" transform="matrix(.1 0 0 -.1 0 300)"><path d="M862 2617c-45-57-78-174-88-318l-7-95 12-70c6-38 18-99 27-135l15-66-41-88-41-89-54-73c-30-40-55-74-55-77s35-24 78-47c42-23 100-55 129-71l51-28-40-61-40-60-24-68c-13-37-28-101-34-142l-11-74 6-70 6-70 20-62 20-62 38-58 38-58 56-50c109-97 249-161 407-186l75-12 110 6 110 6 80 20 80 21 92 45 92 46 74 58c40 32 92 80 115 107 53 62 114 179 140 269l21 70 6 80 6 80-11 80c-5 44-13 88-16 98l-6 18-58-56-59-55-53-25c-29-14-85-32-124-40l-71-16-41 3-42 3 51 67 50 67 117 97c64 54 138 117 163 141l46 44-61 62-61 63-49 88-49 89 16 86c9 47 19 131 23 186l6 100-21 93-20 93-28 52-28 52-25-3c-33-5-123-53-185-100l-50-38-60-76c-33-42-67-86-75-97l-15-21-70 11-70 10-60-6c-33-3-74-8-90-11l-31-5-48 70-48 71-49 44c-65 59-151 115-210 137l-47 18-10-12zm104-113 59-35 68-67c37-37 86-95 109-128l40-62 37 10 36 11 110 1c61 0 133-2 160-6l50-8 39 60 38 60 83 77 82 78 47 24 48 25 8-13c4-7 15-47 25-87l17-75-5-142-5-142-17-58-16-58 58-105 58-105 42-48 42-48-32-30c-18-16-75-64-128-106-102-81-161-145-223-239l-38-56-83-12-84-12-79-27c-44-15-109-44-146-65l-66-37-59-55-60-55-41-64-40-65-11-50c-6-27-9-55-7-62l4-11 33 59 33 59 92 91 92 91 94 47 95 46 77 20 77 19 168 15c209 20 298 43 373 96 15 11 31 20 34 20 11 0 6-97-8-172-20-104-50-178-107-263l-50-74-65-60-66-60-87-45-87-45-80-23-79-23h-310l-65 18c-36 10-99 35-140 55l-75 36-72 72-73 72-30 63-29 64-11 69-11 68 11 74c5 41 19 99 30 130 19 55 96 184 109 184 3 0 28-7 55-15 89-27 89-15-1 61l-68 56-111 54-111 55 47 72c27 40 66 110 88 158l39 85-9 25c-16 43-36 152-43 234l-7 80 11 80c12 84 38 175 50 175 4 0 34-16 67-36zm-30-121c-3-21-8-61-11-88l-6-50 10-85c6-46 15-88 21-94l9-9 44 40c25 23 63 53 86 68 22 15 41 31 41 35 0 20-163 220-180 220-5 0-11-17-14-37zm921-23c-60-65-117-142-117-159 0-6 10-16 23-22 12-6 52-36 89-65l67-54 8 37c4 21 8 98 8 170v132l-11 11-11 11-56-61zm-643-514c-34-15-74-60-74-84v-14l23 5c12 3 40 12 61 20l39 15 31-9 30-9 31-30 31-30h35l-6 23c-12 38-39 79-66 99l-26 19-39 5-39 4-31-14zm534-2-28-15-15-29c-8-16-15-43-15-60v-30h8c5 0 18 14 31 31l22 30 27 10 26 10 48-25 49-25 5 14 6 14-18 30-18 31-32 15c-40 19-61 18-96-1zm-48-148c0-5 18-35 39-67l39-59-26-5c-38-8-73-27-86-47l-10-17 17-36 17-35 31-19 31-19-39-13-38-13h-140l-52 17-52 18-51 46-50 45-15-6-15-5v-39l41-37 42-37 56-27 56-26h220l54 30 53 29 25 32c13 18 28 45 32 61l9 30-14 31c-7 18-17 32-22 32s-42 33-81 72c-39 40-71 69-71 64z"/></g><g fill="#764b20" transform="matrix(.1 0 0 -.1 0 300)"><path d="M862 2617c-44-55-77-171-87-307l-7-85 12-85c6-47 18-112 26-146l16-60-41-89-42-89-54-73c-30-40-55-74-55-77s35-24 78-47c42-23 100-55 129-71l51-28-40-61-40-60-24-69-24-69-11-81-11-82 11-73c13-92 41-167 90-242l38-59 51-44c106-93 247-157 402-181l75-12 110 6 110 6 80 20 80 21 92 45 92 46 74 58c118 93 186 189 238 333l31 83 9 88 10 89-11 88c-5 49-13 96-16 105l-6 16-59-56-58-55-53-25c-29-14-85-32-124-40l-71-16-41 3-42 3 51 67 50 67 117 97c64 54 138 117 163 141l46 44-61 62-61 63-49 88-49 88 18 97 18 96 1 110v110l-17 75-18 75-27 50-27 50-25-3c-40-6-132-59-201-117l-64-53-45-61c-25-34-52-70-60-81l-15-20-70 11-70 10-60-6c-33-3-74-8-91-11l-30-6-36 54c-76 114-212 229-319 269l-47 18-10-12zm186-168 61-49 53-70c29-38 60-79 68-90l15-21 75 12 75 11 100-5c55-3 107-8 117-12l16-6 43 63 42 63 72 70 72 70 57 30 56 30 10-15c16-25 29-80 41-173l11-89-11-96c-6-53-17-121-25-150l-14-54 52-95c29-52 73-122 100-155l48-60-8-7c-5-4-63-51-129-103l-121-96-45-54c-25-29-63-78-83-110l-38-56-83-12-84-12-79-27c-44-15-110-45-148-66l-69-38-71-71-70-71-32-64-32-64v-72l42 65c83 127 212 234 352 293l70 29 89 19 89 18 106 6c181 10 307 42 382 95 16 11 31 20 36 20h7l-6-82c-8-111-29-187-77-283l-40-81-48-57c-62-74-148-139-247-187l-80-39-90-22-90-22h-120l-120 1-80 21-80 21-81 40-81 39-55 53c-65 63-103 121-129 197l-20 56-5 70-6 70 16 75 16 75 35 70c19 39 45 83 58 99l24 30 58-17c32-9 61-14 64-11 9 9-97 99-163 138-32 19-88 47-125 62-36 15-67 29-69 30s18 34 43 73 64 109 86 155l41 84-23 89-23 88-1 145v145l23 73 23 73 48-27c27-14 76-48 109-75zm825-72c-45-48-133-165-133-176 0-3 20-18 44-34 24-15 64-45 89-67l46-40 8 57c4 32 7 106 6 165l-1 107-9 16-9 16-41-44zm-939-13c-8-52 0-261 11-286l7-17 74 59c41 33 82 63 90 68l17 9-32 46c-37 55-139 167-151 167-5 0-12-21-16-46zm299-515-32-9-30-31c-17-17-31-37-31-45v-14h12c6 0 31 9 55 21l44 21 33-6 33-6 40-35c23-19 44-35 47-35 11 0 6 32-10 66l-16 34-32 19c-17 11-42 22-56 25l-25 5-32-10zm540 3-22-3-31-35-30-35v-69h8c5 0 15 12 22 26l14 26 28 14c36 19 57 18 96-6 18-11 37-20 42-20 19 0 10 30-17 60l-28 30-30 8c-16 4-40 6-52 4zm-63-172c7-14 28-46 46-72l34-48h-29c-16 0-41-4-55-10l-26-10-11-23-11-24 17-32 16-32 30-18 31-19-39-13-38-13h-140l-52 17-52 18-51 46-50 45-15-6-15-5v-39l41-37 42-37 56-27 56-26h220l54 30 53 29 25 32c13 18 28 45 32 61l9 29-12 26-11 26-57 46c-31 25-68 60-83 78l-27 33 12-25z"/></g><g fill="#2b2621" transform="matrix(.1 0 0 -.1 0 300)"><path d="M862 2617c-41-51-77-171-85-286-6-85 8-251 28-332l17-65-41-89-42-89-54-73c-30-40-55-74-55-77s35-24 78-47c42-23 100-55 129-71l51-28-40-61-40-60-25-70-24-71-11-87-11-87 17-84 17-85 37-75 37-75 65-65 66-65 57-34c73-43 201-87 297-102l75-12 110 6 110 6 80 20 80 21 92 45 92 46 75 59 75 59 39 53c62 84 99 156 130 253l29 90 7 71 7 71-11 86c-6 48-13 94-16 102l-6 16-59-56-58-55-53-25c-29-14-85-32-124-40l-71-16-41 3-42 3 51 67 50 67 117 97c64 54 138 117 163 141l46 44-61 62-61 63-49 88-49 88 18 96 18 95-2 118-1 119-15 67-16 68-27 50-27 50-25-3c-14-2-52-18-85-35l-60-32-82-79-83-78-35-54-35-53-53 7c-67 9-148 9-218 0l-57-8-31 49-32 49-82 79c-84 80-147 123-216 148l-40 14-9-12zm121-117 74-50 60-64c33-35 75-87 93-115l34-51 35 7c20 5 108 8 197 8h161l39 58 39 58 71 68 70 67 58 34 58 33 9-14c14-21 28-76 40-154l11-70-5-100-5-100-17-75-17-76 54-98c30-53 73-119 96-146s42-53 42-58-44-42-98-83c-53-41-128-106-167-144l-70-71-43-66-43-66-84-12-84-12-79-27c-44-15-109-44-145-64l-66-37-57-53-58-52-36-57c-37-56-66-136-58-158l4-12 34 54c19 29 61 81 94 116l59 62 76 49c92 58 180 94 285 116l80 16 145 9 146 9 50 14c66 19 120 42 155 67 15 11 31 20 36 20h7l-6-82c-8-113-29-187-82-293l-44-90-41-48c-57-65-145-131-237-177l-78-39-85-23-85-22h-270l-70 18-70 18-85 41-85 41-66 66-66 65-26 50c-14 28-33 77-42 110l-17 59 5 95 5 96 22 62 22 62 41 63c23 35 44 66 48 71l5 7 47-16c25-8 54-14 64-12l18 3-69 57-69 57-76 39c-42 22-93 45-113 52-21 6-38 16-38 21s15 30 34 56c19 27 57 94 85 150l51 103-21 72-21 73-5 140-5 140 15 65c20 82 34 120 46 120 5 0 43-22 84-50zm-38-100c-4-6-9-55-12-109l-6-98 13-66 12-66 57 48c31 27 71 58 89 69l33 19-60 79c-32 44-73 92-89 107l-30 29-7-12zm921-38c-27-28-66-75-88-106l-39-55 42-26c23-15 61-45 85-67l44-41 7 7c4 3 9 70 11 149l4 142-9 23-9 24-48-50zm-662-531c-18-10-39-30-48-42l-16-23 9-9 8-8 39 20 39 21h28c36 0 63-14 104-53 39-36 49-31 34 16l-11 34-30 28-29 28-48 4-48 4-31-20zm538 3c-26-18-52-65-52-94 0-28 6-26 44 15l33 35h70l26-20c24-19 47-26 47-15 0 4-7 19-15 35l-15 30-30 15c-16 8-42 15-57 15h-29l-22-16zm-14-179c6-11 22-36 37-55l25-35-48-10c-26-6-53-15-60-19l-12-7v-30c0-40 15-66 52-88l30-19-39-13-38-13h-140l-52 17-52 18-51 46-50 45-15-6-15-5v-39l41-37 42-37 56-27 56-26h220l54 30 53 29 25 32c13 18 28 45 32 61l9 29-12 26c-6 14-27 38-46 54-19 15-52 44-74 63l-38 36 10-20z"/></g></g></svg>